# xmcd
# Track frame offsets:
# 150
# 14390
# 27667
# 46689
#
# Disc length: 835 seconds
# Revision: 0
# Processed by: cddbd v1.5.2PL0 Copyright (c) Steve Scherf et al.
# Submitted via: VisiTrax 2.10.3.257 - For more info visit www.synapsa.com
#
DISCID=28034104
DTITLE=hard to find - Chris Pickering
DYEAR=2008
DGENRE=Country
TTITLE0=Hard to find
TTITLE1=All as it should be
TTITLE2=Thinking clearer
TTITLE3=Further along
EXTD=
EXTT0=
EXTT1=
EXTT2=
EXTT3=
PLAYORDER=
